<svg width="24" height="24" viewBox="0 0 24 24" fill="none" xmlns="http://www.w3.org/2000/svg">
<path d="M5.5 22C5.1 22 4.75 21.85 4.45 21.55C4.15 21.25 4 20.9 4 20.5V3.5C4 3.1 4.15 2.75 4.45 2.45C4.75 2.15 5.1 2 5.5 2H18.5C18.9 2 19.25 2.15 19.55 2.45C19.85 2.75 20 3.1 20 3.5V20.5C20 20.9 19.85 21.25 19.55 21.55C19.25 21.85 18.9 22 18.5 22H5.5ZM5.5 20.5H18.5V3.5H17V9.525C17 9.65833 16.9375 9.7625 16.8125 9.8375C16.6875 9.9125 16.5583 9.91667 16.425 9.85L14.925 8.975C14.8067 8.90833 14.6855 8.875 14.5613 8.875C14.4371 8.875 14.3167 8.90833 14.2 8.975L12.7 9.85C12.5667 9.91667 12.4417 9.9125 12.325 9.8375C12.2083 9.7625 12.15 9.65833 12.15 9.525V3.5H5.5V20.5ZM12.15 9.525C12.15 9.65833 12.2083 9.7625 12.325 9.8375C12.4417 9.9125 12.5667 9.91667 12.7 9.85L14.2 8.975C14.3183 8.90833 14.4395 8.875 14.5637 8.875C14.6879 8.875 14.8167 8.90833 14.95 8.975L16.425 9.85C16.5583 9.91667 16.6875 9.9125 16.8125 9.8375C16.9375 9.7625 17 9.65833 17 9.525C17 9.68152 16.9375 9.79565 16.8125 9.8674C16.6875 9.93913 16.5583 9.93333 16.425 9.85L14.925 9C14.8067 8.91667 14.6855 8.875 14.5613 8.875C14.4371 8.875 14.3167 8.91667 14.2 9L12.7 9.85C12.5667 9.93333 12.4417 9.93913 12.325 9.8674C12.2083 9.79565 12.15 9.68152 12.15 9.525Z" fill="url(#paint0_linear_30_299)"/>
<defs>
<linearGradient id="paint0_linear_30_299" x1="12" y1="2" x2="12" y2="22" gradientUnits="userSpaceOnUse">
<stop stop-color="#D6AE73"/>
<stop offset="1" stop-color="#A26044"/>
</linearGradient>
</defs>
</svg>
