<svg width="24" height="24" viewBox="0 0 24 24" fill="none" xmlns="http://www.w3.org/2000/svg">
<path d="M12.025 22L11 19H4C3.41667 19 2.9375 18.8125 2.5625 18.4375C2.1875 18.0625 2 17.5833 2 17V4C2 3.41667 2.1875 2.9375 2.5625 2.5625C2.9375 2.1875 3.41667 2 4 2H10L10.875 4.985H20C20.5833 4.985 21.0625 5.17156 21.4375 5.54467C21.8125 5.91781 22 6.39458 22 6.975V20C22 20.5833 21.813 21.0625 21.4389 21.4375C21.0648 21.8125 20.5869 22 20.005 22H12.025ZM7.16752 14.6C8.32251 14.6 9.26667 14.2268 10 13.4805C10.7333 12.7342 11.1 11.7657 11.1 10.575V10.1875C11.1 10.0792 11.0832 9.98333 11.0497 9.9H7.075V11.425H9.325C9.19167 11.9075 8.9375 12.2823 8.5625 12.5494C8.1875 12.8165 7.73333 12.95 7.2 12.95C6.55 12.95 5.99167 12.7143 5.525 12.2428C5.05833 11.7713 4.825 11.1904 4.825 10.5C4.825 9.80962 5.05833 9.22869 5.525 8.75723C5.99167 8.28574 6.54785 8.05 7.19355 8.05C7.49157 8.05 7.77303 8.10417 8.03793 8.2125C8.30283 8.32083 8.54288 8.48333 8.7581 8.7L9.975 7.55C9.64167 7.18333 9.225 6.9 8.725 6.7C8.225 6.5 7.70833 6.4 7.175 6.4C6.04167 6.4 5.07917 6.8 4.2875 7.6C3.49583 8.4 3.1 9.36667 3.1 10.5C3.1 11.6333 3.49755 12.6 4.29265 13.4C5.08773 14.2 6.04602 14.6 7.16752 14.6ZM13.8601 15.075L14.425 14.55C14.1917 14.2667 13.975 13.9958 13.775 13.7375C13.575 13.4792 13.3833 13.2 13.2 12.9L13.8601 15.075ZM15.1049 13.8C15.5776 13.25 15.9364 12.725 16.1812 12.225C16.426 11.725 16.5906 11.3333 16.675 11.05H12.7L12.975 12.125H13.975C14.1083 12.37 14.2667 12.6354 14.45 12.9213C14.6333 13.2071 14.8516 13.5 15.1049 13.8ZM13.025 21H20C20.2833 21 20.5208 20.904 20.7125 20.712C20.9042 20.52 21 20.2821 21 19.9982V6.975C21 6.69167 20.9042 6.45417 20.7125 6.2625C20.5208 6.07083 20.2833 5.975 20 5.975H11.2L12.35 10.05H14.325V8.975H15.35V10.05H19.025V11.05H17.725C17.575 11.6833 17.3333 12.3013 17 12.9038C16.6667 13.5063 16.275 14.0669 15.825 14.5858L18.55 17.272L17.825 18L15.1 15.3L14.2 16.2L15.025 19L13.025 21Z" fill="url(#paint0_linear_30_307)"/>
<defs>
<linearGradient id="paint0_linear_30_307" x1="12" y1="2" x2="12" y2="22" gradientUnits="userSpaceOnUse">
<stop stop-color="#D6AE73"/>
<stop offset="1" stop-color="#A26044"/>
</linearGradient>
</defs>
</svg>
