<svg width="233" height="48" viewBox="0 0 233 48" fill="none" xmlns="http://www.w3.org/2000/svg">
<path d="M0.0400391 47.024V46.112C1.48004 46.08 2.68004 45.728 3.64004 45.056C4.63204 44.384 5.36804 43.264 5.84804 41.696C6.36004 40.16 6.61604 38.096 6.61604 35.504V9.10401C6.61604 7.92001 6.52004 7.05601 6.32804 6.51201C6.13604 5.93601 5.75204 5.55201 5.17604 5.36001C4.63204 5.13601 3.81604 5.00801 2.72804 4.97601V4.01601C3.40004 4.04801 4.28004 4.08001 5.36804 4.11201C6.45604 4.14401 7.59204 4.16001 8.77604 4.16001C9.96004 4.16001 11.096 4.14401 12.184 4.11201C13.304 4.08001 14.232 4.04801 14.968 4.01601V4.97601C13.88 5.00801 13.048 5.13601 12.472 5.36001C11.928 5.55201 11.56 5.93601 11.368 6.51201C11.176 7.05601 11.08 7.92001 11.08 9.10401V26.672C11.08 27.984 11.064 29.408 11.032 30.944C11 32.48 10.92 33.968 10.792 35.408C10.696 36.848 10.52 38.112 10.264 39.2C9.72004 41.44 8.56804 43.296 6.80804 44.768C5.08004 46.272 2.82404 47.024 0.0400391 47.024Z" fill="#141414"/>
<path d="M28.8685 12.608C31.6845 12.608 33.8765 13.472 35.4445 15.2C37.0445 16.896 37.8445 19.552 37.8445 23.168H20.9005L20.8525 22.256H33.2365C33.3005 20.688 33.1725 19.248 32.8525 17.936C32.5325 16.592 32.0205 15.52 31.3165 14.72C30.6445 13.92 29.7645 13.52 28.6765 13.52C27.2045 13.52 25.8925 14.256 24.7405 15.728C23.6205 17.2 22.9485 19.536 22.7245 22.736L22.8685 22.928C22.8045 23.408 22.7565 23.936 22.7245 24.512C22.6925 25.088 22.6765 25.664 22.6765 26.24C22.6765 28.416 23.0285 30.288 23.7325 31.856C24.4365 33.424 25.3485 34.624 26.4685 35.456C27.6205 36.256 28.8045 36.656 30.0205 36.656C30.9805 36.656 31.8925 36.512 32.7565 36.224C33.6205 35.904 34.4205 35.392 35.1565 34.688C35.8925 33.984 36.5325 33.04 37.0765 31.856L38.0365 32.24C37.6845 33.296 37.1085 34.32 36.3085 35.312C35.5085 36.304 34.5005 37.12 33.2845 37.76C32.0685 38.368 30.6605 38.672 29.0605 38.672C26.7565 38.672 24.7725 38.144 23.1085 37.088C21.4765 36.032 20.2125 34.576 19.3165 32.72C18.4525 30.832 18.0205 28.672 18.0205 26.24C18.0205 23.424 18.4685 21.008 19.3645 18.992C20.2605 16.944 21.5245 15.376 23.1565 14.288C24.7885 13.168 26.6925 12.608 28.8685 12.608Z" fill="#141414"/>
<path d="M48.3018 38.336C46.9898 38.336 45.8538 38.096 44.8938 37.616C43.9338 37.104 43.1978 36.4 42.6858 35.504C42.2058 34.608 41.9658 33.568 41.9658 32.384C41.9658 30.976 42.2858 29.824 42.9258 28.928C43.5978 28.032 44.4458 27.312 45.4698 26.768C46.4938 26.224 47.5658 25.776 48.6858 25.424C49.8378 25.04 50.9258 24.688 51.9498 24.368C52.9738 24.016 53.8058 23.616 54.4458 23.168C55.1178 22.72 55.4538 22.128 55.4538 21.392V18.416C55.4538 17.072 55.2458 16.048 54.8298 15.344C54.4458 14.64 53.9178 14.176 53.2458 13.952C52.5738 13.696 51.8218 13.568 50.9898 13.568C50.1898 13.568 49.3258 13.68 48.3978 13.904C47.5018 14.128 46.7818 14.592 46.2378 15.296C46.8458 15.424 47.3738 15.744 47.8218 16.256C48.2698 16.768 48.4938 17.424 48.4938 18.224C48.4938 19.024 48.2378 19.664 47.7258 20.144C47.2138 20.592 46.5578 20.816 45.7578 20.816C44.8298 20.816 44.1418 20.528 43.6938 19.952C43.2778 19.344 43.0698 18.672 43.0698 17.936C43.0698 17.104 43.2778 16.432 43.6938 15.92C44.1098 15.408 44.6378 14.928 45.2778 14.48C46.0138 13.968 46.9578 13.536 48.1098 13.184C49.2938 12.8 50.6218 12.608 52.0938 12.608C53.4058 12.608 54.5258 12.768 55.4538 13.088C56.3818 13.376 57.1498 13.808 57.7578 14.384C58.5898 15.152 59.1338 16.096 59.3898 17.216C59.6458 18.304 59.7738 19.616 59.7738 21.152V34.496C59.7738 35.296 59.8858 35.872 60.1098 36.224C60.3658 36.576 60.7498 36.752 61.2618 36.752C61.6138 36.752 61.9498 36.672 62.2698 36.512C62.5898 36.352 62.9738 36.096 63.4218 35.744L63.9498 36.56C63.2778 37.072 62.6378 37.504 62.0298 37.856C61.4218 38.176 60.6058 38.336 59.5818 38.336C58.6538 38.336 57.8858 38.176 57.2778 37.856C56.6698 37.536 56.2058 37.072 55.8858 36.464C55.5978 35.824 55.4538 35.024 55.4538 34.064C54.5898 35.504 53.5498 36.576 52.3338 37.28C51.1498 37.984 49.8058 38.336 48.3018 38.336ZM50.0298 36.416C51.0858 36.416 52.0618 36.112 52.9578 35.504C53.8858 34.896 54.7178 33.984 55.4538 32.768V23.36C55.0698 23.904 54.5098 24.368 53.7738 24.752C53.0378 25.104 52.2378 25.472 51.3738 25.856C50.5098 26.208 49.6778 26.64 48.8778 27.152C48.1098 27.632 47.4698 28.272 46.9578 29.072C46.4458 29.872 46.1898 30.912 46.1898 32.192C46.1898 33.472 46.5258 34.496 47.1978 35.264C47.9018 36.032 48.8458 36.416 50.0298 36.416Z" fill="#141414"/>
<path d="M81.52 12.608C82.736 12.608 83.744 12.768 84.544 13.088C85.376 13.408 86.064 13.856 86.608 14.432C87.216 15.072 87.648 15.872 87.904 16.832C88.16 17.792 88.288 19.088 88.288 20.72V33.536C88.288 34.88 88.56 35.792 89.104 36.272C89.68 36.752 90.624 36.992 91.936 36.992V38C91.392 37.968 90.56 37.936 89.44 37.904C88.32 37.84 87.232 37.808 86.176 37.808C85.12 37.808 84.08 37.84 83.056 37.904C82.064 37.936 81.312 37.968 80.8 38V36.992C81.952 36.992 82.768 36.752 83.248 36.272C83.728 35.792 83.968 34.88 83.968 33.536V19.664C83.968 18.672 83.888 17.76 83.728 16.928C83.568 16.096 83.2 15.424 82.624 14.912C82.08 14.4 81.232 14.144 80.08 14.144C78.736 14.144 77.552 14.528 76.528 15.296C75.536 16.064 74.752 17.12 74.176 18.464C73.632 19.776 73.36 21.248 73.36 22.88V33.536C73.36 34.88 73.6 35.792 74.08 36.272C74.56 36.752 75.376 36.992 76.528 36.992V38C76.016 37.968 75.248 37.936 74.224 37.904C73.232 37.84 72.208 37.808 71.152 37.808C70.096 37.808 69.008 37.84 67.888 37.904C66.768 37.936 65.936 37.968 65.392 38V36.992C66.704 36.992 67.632 36.752 68.176 36.272C68.752 35.792 69.04 34.88 69.04 33.536V18.512C69.04 17.072 68.784 16.016 68.272 15.344C67.76 14.64 66.8 14.288 65.392 14.288V13.28C66.416 13.376 67.408 13.424 68.368 13.424C69.296 13.424 70.176 13.376 71.008 13.28C71.872 13.152 72.656 12.976 73.36 12.752V18.416C74.192 16.24 75.344 14.736 76.816 13.904C78.32 13.04 79.888 12.608 81.52 12.608Z" fill="#141414"/>
<path d="M130.562 4.01601C130.434 5.23201 130.338 6.41601 130.274 7.56801C130.242 8.68801 130.226 9.55201 130.226 10.16C130.226 10.928 130.242 11.648 130.274 12.32C130.306 12.992 130.338 13.584 130.37 14.096H129.266C129.042 11.856 128.738 10.096 128.354 8.81601C127.97 7.50401 127.298 6.56001 126.338 5.98401C125.378 5.40801 123.89 5.12001 121.874 5.12001H118.85C117.762 5.12001 116.93 5.21601 116.354 5.40801C115.81 5.56801 115.442 5.93601 115.25 6.51201C115.058 7.05601 114.962 7.92001 114.962 9.10401V32.912C114.962 34.064 115.074 34.928 115.298 35.504C115.554 36.08 116.034 36.464 116.738 36.656C117.442 36.848 118.466 36.976 119.81 37.04V38C118.978 37.936 117.922 37.904 116.642 37.904C115.362 37.872 114.066 37.856 112.754 37.856C111.506 37.856 110.338 37.872 109.25 37.904C108.162 37.904 107.282 37.936 106.61 38V37.04C107.698 36.976 108.514 36.848 109.058 36.656C109.634 36.464 110.018 36.08 110.21 35.504C110.402 34.928 110.498 34.064 110.498 32.912V9.10401C110.498 7.92001 110.402 7.05601 110.21 6.51201C110.018 5.93601 109.634 5.55201 109.058 5.36001C108.514 5.13601 107.698 5.00801 106.61 4.97601V4.01601C107.794 4.04801 109.042 4.08001 110.354 4.11201C111.666 4.11201 112.962 4.12801 114.242 4.16001C115.522 4.16001 116.706 4.16001 117.794 4.16001C118.914 4.16001 119.826 4.16001 120.53 4.16001C122.002 4.16001 123.666 4.16001 125.522 4.16001C127.41 4.12801 129.09 4.08001 130.562 4.01601ZM123.122 20.912C123.122 20.912 123.122 21.072 123.122 21.392C123.122 21.712 123.122 21.872 123.122 21.872H113.522C113.522 21.872 113.522 21.712 113.522 21.392C113.522 21.072 113.522 20.912 113.522 20.912H123.122ZM124.034 14.576C123.906 16.4 123.842 17.792 123.842 18.752C123.874 19.712 123.89 20.592 123.89 21.392C123.89 22.192 123.906 23.072 123.938 24.032C123.97 24.992 124.05 26.384 124.178 28.208H123.074C122.946 27.184 122.786 26.192 122.594 25.232C122.434 24.24 122.05 23.44 121.442 22.832C120.866 22.192 119.874 21.872 118.466 21.872V20.912C119.522 20.912 120.322 20.704 120.866 20.288C121.442 19.84 121.858 19.28 122.114 18.608C122.37 17.936 122.546 17.248 122.642 16.544C122.738 15.808 122.834 15.152 122.93 14.576H124.034Z" fill="#141414"/>
<path d="M143.806 12.608C146.622 12.608 148.814 13.472 150.382 15.2C151.982 16.896 152.782 19.552 152.782 23.168H135.838L135.79 22.256H148.174C148.238 20.688 148.11 19.248 147.79 17.936C147.47 16.592 146.958 15.52 146.254 14.72C145.582 13.92 144.702 13.52 143.614 13.52C142.142 13.52 140.83 14.256 139.678 15.728C138.558 17.2 137.886 19.536 137.662 22.736L137.806 22.928C137.742 23.408 137.694 23.936 137.662 24.512C137.63 25.088 137.614 25.664 137.614 26.24C137.614 28.416 137.966 30.288 138.67 31.856C139.374 33.424 140.286 34.624 141.406 35.456C142.558 36.256 143.742 36.656 144.958 36.656C145.918 36.656 146.83 36.512 147.694 36.224C148.558 35.904 149.358 35.392 150.094 34.688C150.83 33.984 151.47 33.04 152.014 31.856L152.974 32.24C152.622 33.296 152.046 34.32 151.246 35.312C150.446 36.304 149.438 37.12 148.222 37.76C147.006 38.368 145.598 38.672 143.998 38.672C141.694 38.672 139.71 38.144 138.046 37.088C136.414 36.032 135.15 34.576 134.254 32.72C133.39 30.832 132.958 28.672 132.958 26.24C132.958 23.424 133.406 21.008 134.302 18.992C135.198 16.944 136.462 15.376 138.094 14.288C139.726 13.168 141.63 12.608 143.806 12.608Z" fill="#141414"/>
<path d="M164.055 0.368011V33.536C164.055 34.88 164.327 35.792 164.871 36.272C165.447 36.752 166.391 36.992 167.703 36.992V38C167.159 37.968 166.327 37.936 165.207 37.904C164.119 37.84 163.015 37.808 161.895 37.808C160.807 37.808 159.703 37.84 158.583 37.904C157.463 37.936 156.631 37.968 156.087 38V36.992C157.399 36.992 158.327 36.752 158.871 36.272C159.447 35.792 159.735 34.88 159.735 33.536V6.12801C159.735 4.68801 159.479 3.63201 158.967 2.96001C158.455 2.25601 157.495 1.90401 156.087 1.90401V0.89601C157.111 0.992011 158.103 1.04001 159.063 1.04001C159.991 1.04001 160.871 0.992011 161.703 0.89601C162.567 0.768012 163.351 0.592012 164.055 0.368011Z" fill="#141414"/>
<path d="M175.63 1.28001C176.462 1.28001 177.182 1.58401 177.79 2.19201C178.398 2.80001 178.702 3.52001 178.702 4.35201C178.702 5.18401 178.398 5.90401 177.79 6.51201C177.182 7.12001 176.462 7.42401 175.63 7.42401C174.798 7.42401 174.078 7.12001 173.47 6.51201C172.862 5.90401 172.558 5.18401 172.558 4.35201C172.558 3.52001 172.862 2.80001 173.47 2.19201C174.078 1.58401 174.798 1.28001 175.63 1.28001ZM178.126 12.752V33.536C178.126 34.88 178.398 35.792 178.942 36.272C179.518 36.752 180.462 36.992 181.774 36.992V38C181.23 37.968 180.398 37.936 179.278 37.904C178.19 37.84 177.086 37.808 175.966 37.808C174.878 37.808 173.774 37.84 172.654 37.904C171.534 37.936 170.702 37.968 170.158 38V36.992C171.47 36.992 172.398 36.752 172.942 36.272C173.518 35.792 173.806 34.88 173.806 33.536V18.512C173.806 17.072 173.55 16.016 173.038 15.344C172.526 14.64 171.566 14.288 170.158 14.288V13.28C171.182 13.376 172.174 13.424 173.134 13.424C174.062 13.424 174.942 13.376 175.774 13.28C176.638 13.152 177.422 12.976 178.126 12.752Z" fill="#141414"/>
<path d="M191.852 12.752V42.224C191.852 43.6 192.252 44.512 193.052 44.96C193.884 45.44 195.02 45.68 196.46 45.68V46.688C195.756 46.656 194.78 46.608 193.532 46.544C192.284 46.512 190.956 46.496 189.548 46.496C188.556 46.496 187.564 46.512 186.572 46.544C185.612 46.608 184.876 46.656 184.364 46.688V45.68C185.516 45.68 186.332 45.472 186.812 45.056C187.292 44.64 187.532 43.856 187.532 42.704V18.512C187.532 17.072 187.276 16.016 186.764 15.344C186.252 14.64 185.292 14.288 183.884 14.288V13.28C184.908 13.376 185.9 13.424 186.86 13.424C187.788 13.424 188.668 13.376 189.5 13.28C190.364 13.152 191.148 12.976 191.852 12.752ZM199.532 12.608C201.228 12.608 202.748 13.072 204.092 14C205.436 14.896 206.492 16.224 207.26 17.984C208.06 19.744 208.46 21.92 208.46 24.512C208.46 26.24 208.252 27.952 207.836 29.648C207.42 31.312 206.764 32.832 205.868 34.208C205.004 35.552 203.868 36.64 202.46 37.472C201.084 38.272 199.42 38.672 197.468 38.672C195.964 38.672 194.652 38.32 193.532 37.616C192.444 36.912 191.708 36.064 191.324 35.072L191.804 34.4C192.252 35.296 192.892 36.048 193.724 36.656C194.588 37.264 195.66 37.568 196.94 37.568C198.732 37.568 200.124 37.008 201.116 35.888C202.108 34.768 202.796 33.28 203.18 31.424C203.596 29.536 203.804 27.456 203.804 25.184C203.804 22.624 203.596 20.528 203.18 18.896C202.764 17.264 202.14 16.048 201.308 15.248C200.476 14.448 199.452 14.048 198.236 14.048C196.668 14.048 195.244 14.704 193.964 16.016C192.684 17.296 191.868 19.248 191.516 21.872L190.94 21.2C191.292 18.48 192.252 16.368 193.82 14.864C195.42 13.36 197.324 12.608 199.532 12.608Z" fill="#141414"/>
<path d="M223.775 12.608C226.591 12.608 228.783 13.472 230.351 15.2C231.951 16.896 232.751 19.552 232.751 23.168H215.807L215.759 22.256H228.143C228.207 20.688 228.079 19.248 227.759 17.936C227.439 16.592 226.927 15.52 226.223 14.72C225.551 13.92 224.671 13.52 223.583 13.52C222.111 13.52 220.799 14.256 219.647 15.728C218.527 17.2 217.855 19.536 217.631 22.736L217.775 22.928C217.711 23.408 217.663 23.936 217.631 24.512C217.599 25.088 217.583 25.664 217.583 26.24C217.583 28.416 217.935 30.288 218.639 31.856C219.343 33.424 220.255 34.624 221.375 35.456C222.527 36.256 223.711 36.656 224.927 36.656C225.887 36.656 226.799 36.512 227.663 36.224C228.527 35.904 229.327 35.392 230.063 34.688C230.799 33.984 231.439 33.04 231.983 31.856L232.943 32.24C232.591 33.296 232.015 34.32 231.215 35.312C230.415 36.304 229.407 37.12 228.191 37.76C226.975 38.368 225.567 38.672 223.967 38.672C221.663 38.672 219.679 38.144 218.015 37.088C216.383 36.032 215.119 34.576 214.223 32.72C213.359 30.832 212.927 28.672 212.927 26.24C212.927 23.424 213.375 21.008 214.271 18.992C215.167 16.944 216.431 15.376 218.063 14.288C219.695 13.168 221.599 12.608 223.775 12.608Z" fill="#141414"/>
</svg>
